G04*
G04 #@! TF.GenerationSoftware,Altium Limited,Altium Designer,20.0.11 (256)*
G04*
G04 Layer_Color=255*
%FSLAX25Y25*%
%MOIN*%
G70*
G01*
G75*
%ADD14R,0.08268X0.05000*%
%ADD15R,0.02559X0.04173*%
%ADD16O,0.02559X0.04173*%
%ADD17R,0.03543X0.02756*%
%ADD18O,0.03150X0.04724*%
%ADD19R,0.03150X0.04724*%
%ADD20R,0.02756X0.03543*%
%ADD21R,0.22835X0.25197*%
%ADD22R,0.04724X0.08661*%
%ADD23R,0.03937X0.02362*%
%ADD24R,0.06299X0.01417*%
%ADD25O,0.06299X0.01417*%
%ADD39C,0.06653*%
%ADD40R,0.06653X0.06653*%
%ADD46C,0.29134*%
%ADD47C,0.06102*%
%ADD48R,0.06102X0.06102*%
%ADD49C,0.13976*%
D14*
X15606Y134346D02*
D03*
Y149976D02*
D03*
X94346Y134346D02*
D03*
Y149976D02*
D03*
X173087Y134346D02*
D03*
Y149976D02*
D03*
X251827Y134346D02*
D03*
Y149976D02*
D03*
X330567Y134346D02*
D03*
Y149976D02*
D03*
X409307Y134346D02*
D03*
Y149976D02*
D03*
X488047Y134346D02*
D03*
Y149976D02*
D03*
X566949Y134496D02*
D03*
Y150126D02*
D03*
X645528Y134346D02*
D03*
Y149976D02*
D03*
D15*
X688287Y80661D02*
D03*
X609709Y80811D02*
D03*
X530807Y80661D02*
D03*
X452067D02*
D03*
X58366D02*
D03*
X137106D02*
D03*
X215846D02*
D03*
X294587D02*
D03*
X373327D02*
D03*
D16*
X695768Y89323D02*
D03*
X688287D02*
D03*
X695768Y80661D02*
D03*
X692028D02*
D03*
X65846Y89323D02*
D03*
X58366D02*
D03*
X65846Y80661D02*
D03*
X62106D02*
D03*
X144587Y89323D02*
D03*
X137106D02*
D03*
X144587Y80661D02*
D03*
X140846D02*
D03*
X223327Y89323D02*
D03*
X215846D02*
D03*
X223327Y80661D02*
D03*
X219587D02*
D03*
X302067Y89323D02*
D03*
X294587D02*
D03*
X302067Y80661D02*
D03*
X298327D02*
D03*
X380807Y89323D02*
D03*
X373327D02*
D03*
X380807Y80661D02*
D03*
X377067D02*
D03*
X459547Y89323D02*
D03*
X452067D02*
D03*
X459547Y80661D02*
D03*
X455807D02*
D03*
X538287Y89323D02*
D03*
X530807D02*
D03*
X538287Y80661D02*
D03*
X534547D02*
D03*
X617189Y89472D02*
D03*
X609709D02*
D03*
X617189Y80811D02*
D03*
X613449D02*
D03*
D17*
X703528Y107209D02*
D03*
Y113114D02*
D03*
X73606Y107209D02*
D03*
Y113114D02*
D03*
X152346Y107209D02*
D03*
Y113114D02*
D03*
X231087Y107209D02*
D03*
Y113114D02*
D03*
X309827Y107209D02*
D03*
Y113114D02*
D03*
X388567Y107209D02*
D03*
Y113114D02*
D03*
X467307Y107209D02*
D03*
Y113114D02*
D03*
X546047Y107209D02*
D03*
Y113114D02*
D03*
X624949Y107358D02*
D03*
Y113264D02*
D03*
X5063Y32268D02*
D03*
Y26362D02*
D03*
D18*
X696028Y122661D02*
D03*
X691028D02*
D03*
X686028D02*
D03*
X696028Y97858D02*
D03*
X66106Y122661D02*
D03*
X61106D02*
D03*
X56106D02*
D03*
X66106Y97858D02*
D03*
X144846Y122661D02*
D03*
X139846D02*
D03*
X134846D02*
D03*
X144846Y97858D02*
D03*
X223587Y122661D02*
D03*
X218587D02*
D03*
X213587D02*
D03*
X223587Y97858D02*
D03*
X302327Y122661D02*
D03*
X297327D02*
D03*
X292327D02*
D03*
X302327Y97858D02*
D03*
X381067Y122661D02*
D03*
X376067D02*
D03*
X371067D02*
D03*
X381067Y97858D02*
D03*
X459807Y122661D02*
D03*
X454807D02*
D03*
X449807D02*
D03*
X459807Y97858D02*
D03*
X538547Y122661D02*
D03*
X533547D02*
D03*
X528547D02*
D03*
X538547Y97858D02*
D03*
X617449Y122811D02*
D03*
X612449D02*
D03*
X607449D02*
D03*
X617449Y98008D02*
D03*
D19*
X686028Y97858D02*
D03*
X56106D02*
D03*
X134846D02*
D03*
X213587D02*
D03*
X292327D02*
D03*
X371067D02*
D03*
X449807D02*
D03*
X528547D02*
D03*
X607449Y98008D02*
D03*
D20*
X679480Y79161D02*
D03*
X673575D02*
D03*
X49559D02*
D03*
X43654D02*
D03*
X128299D02*
D03*
X122394D02*
D03*
X207039D02*
D03*
X201134D02*
D03*
X285780D02*
D03*
X279874D02*
D03*
X364520D02*
D03*
X358614D02*
D03*
X443260D02*
D03*
X437354D02*
D03*
X522000D02*
D03*
X516095D02*
D03*
X600902Y79311D02*
D03*
X594996D02*
D03*
D21*
X664528Y114429D02*
D03*
X34606D02*
D03*
X113346D02*
D03*
X192087D02*
D03*
X270827D02*
D03*
X349567D02*
D03*
X428307D02*
D03*
X507047D02*
D03*
X585949Y114579D02*
D03*
D22*
X673543Y89626D02*
D03*
X655512D02*
D03*
X43622D02*
D03*
X25591D02*
D03*
X122362D02*
D03*
X104331D02*
D03*
X201102D02*
D03*
X183071D02*
D03*
X279843D02*
D03*
X261811D02*
D03*
X358583D02*
D03*
X340551D02*
D03*
X437323D02*
D03*
X419291D02*
D03*
X516063D02*
D03*
X498032D02*
D03*
X594965Y89776D02*
D03*
X576933D02*
D03*
D23*
X11626Y37555D02*
D03*
Y30075D02*
D03*
X19500Y33815D02*
D03*
D24*
X53469Y9315D02*
D03*
D25*
Y11815D02*
D03*
Y14315D02*
D03*
Y16815D02*
D03*
Y19315D02*
D03*
Y21815D02*
D03*
Y24315D02*
D03*
Y26815D02*
D03*
Y29315D02*
D03*
Y31815D02*
D03*
Y34315D02*
D03*
Y36815D02*
D03*
X32563Y9315D02*
D03*
Y11815D02*
D03*
Y14315D02*
D03*
Y16815D02*
D03*
Y19315D02*
D03*
Y21815D02*
D03*
Y24315D02*
D03*
Y26815D02*
D03*
Y29315D02*
D03*
Y31815D02*
D03*
Y34315D02*
D03*
Y36815D02*
D03*
D39*
X321772Y32106D02*
D03*
X282402D02*
D03*
X243032D02*
D03*
X674528Y140165D02*
D03*
X44606D02*
D03*
X123346D02*
D03*
X202087D02*
D03*
X280827D02*
D03*
X359567D02*
D03*
X438307D02*
D03*
X517047D02*
D03*
X595949Y140315D02*
D03*
D40*
X331772Y32106D02*
D03*
X292402D02*
D03*
X253032D02*
D03*
X664528Y140165D02*
D03*
X34606D02*
D03*
X113346D02*
D03*
X192087D02*
D03*
X270827D02*
D03*
X349567D02*
D03*
X428307D02*
D03*
X507047D02*
D03*
X585949Y140315D02*
D03*
D46*
X740158Y0D02*
D03*
Y173228D02*
D03*
X0D02*
D03*
Y0D02*
D03*
D47*
X103937Y48446D02*
D03*
X114724D02*
D03*
X125512D02*
D03*
X136299D02*
D03*
X147087D02*
D03*
X157874D02*
D03*
X168661D02*
D03*
X109331Y37265D02*
D03*
X120118D02*
D03*
X130905D02*
D03*
X174055D02*
D03*
X163268D02*
D03*
X141693D02*
D03*
X152480D02*
D03*
D48*
X179449Y48446D02*
D03*
D49*
X76063Y42965D02*
D03*
X207244D02*
D03*
M02*
