G04*
G04 #@! TF.GenerationSoftware,Altium Limited,Altium Designer,20.0.11 (256)*
G04*
G04 Layer_Color=8388736*
%FSLAX25Y25*%
%MOIN*%
G70*
G01*
G75*
%ADD26R,0.09068X0.05800*%
%ADD27R,0.03359X0.04973*%
%ADD28O,0.03359X0.04973*%
%ADD29R,0.04343X0.03556*%
%ADD30O,0.03950X0.05524*%
%ADD31R,0.03950X0.05524*%
%ADD32R,0.03556X0.04343*%
%ADD33R,0.23635X0.25997*%
%ADD34R,0.05524X0.09461*%
%ADD35R,0.04737X0.03162*%
%ADD36R,0.07099X0.02217*%
%ADD37O,0.07099X0.02217*%
%ADD38C,0.29934*%
%ADD39C,0.06653*%
%ADD40R,0.06653X0.06653*%
%ADD41C,0.06902*%
%ADD42R,0.06902X0.06902*%
%ADD43C,0.14776*%
%ADD44C,0.05721*%
D26*
X15606Y134346D02*
D03*
Y149976D02*
D03*
X94346Y134346D02*
D03*
Y149976D02*
D03*
X173087Y134346D02*
D03*
Y149976D02*
D03*
X251827Y134346D02*
D03*
Y149976D02*
D03*
X330567Y134346D02*
D03*
Y149976D02*
D03*
X409307Y134346D02*
D03*
Y149976D02*
D03*
X488047Y134346D02*
D03*
Y149976D02*
D03*
X566949Y134496D02*
D03*
Y150126D02*
D03*
X645528Y134346D02*
D03*
Y149976D02*
D03*
D27*
X688287Y80661D02*
D03*
X609709Y80811D02*
D03*
X530807Y80661D02*
D03*
X452067D02*
D03*
X58366D02*
D03*
X137106D02*
D03*
X215846D02*
D03*
X294587D02*
D03*
X373327D02*
D03*
D28*
X695768Y89323D02*
D03*
X688287D02*
D03*
X695768Y80661D02*
D03*
X692028D02*
D03*
X65846Y89323D02*
D03*
X58366D02*
D03*
X65846Y80661D02*
D03*
X62106D02*
D03*
X144587Y89323D02*
D03*
X137106D02*
D03*
X144587Y80661D02*
D03*
X140846D02*
D03*
X223327Y89323D02*
D03*
X215846D02*
D03*
X223327Y80661D02*
D03*
X219587D02*
D03*
X302067Y89323D02*
D03*
X294587D02*
D03*
X302067Y80661D02*
D03*
X298327D02*
D03*
X380807Y89323D02*
D03*
X373327D02*
D03*
X380807Y80661D02*
D03*
X377067D02*
D03*
X459547Y89323D02*
D03*
X452067D02*
D03*
X459547Y80661D02*
D03*
X455807D02*
D03*
X538287Y89323D02*
D03*
X530807D02*
D03*
X538287Y80661D02*
D03*
X534547D02*
D03*
X617189Y89472D02*
D03*
X609709D02*
D03*
X617189Y80811D02*
D03*
X613449D02*
D03*
D29*
X703528Y107209D02*
D03*
Y113114D02*
D03*
X73606Y107209D02*
D03*
Y113114D02*
D03*
X152346Y107209D02*
D03*
Y113114D02*
D03*
X231087Y107209D02*
D03*
Y113114D02*
D03*
X309827Y107209D02*
D03*
Y113114D02*
D03*
X388567Y107209D02*
D03*
Y113114D02*
D03*
X467307Y107209D02*
D03*
Y113114D02*
D03*
X546047Y107209D02*
D03*
Y113114D02*
D03*
X624949Y107358D02*
D03*
Y113264D02*
D03*
X5063Y32268D02*
D03*
Y26362D02*
D03*
D30*
X696028Y122661D02*
D03*
X691028D02*
D03*
X686028D02*
D03*
X696028Y97858D02*
D03*
X66106Y122661D02*
D03*
X61106D02*
D03*
X56106D02*
D03*
X66106Y97858D02*
D03*
X144846Y122661D02*
D03*
X139846D02*
D03*
X134846D02*
D03*
X144846Y97858D02*
D03*
X223587Y122661D02*
D03*
X218587D02*
D03*
X213587D02*
D03*
X223587Y97858D02*
D03*
X302327Y122661D02*
D03*
X297327D02*
D03*
X292327D02*
D03*
X302327Y97858D02*
D03*
X381067Y122661D02*
D03*
X376067D02*
D03*
X371067D02*
D03*
X381067Y97858D02*
D03*
X459807Y122661D02*
D03*
X454807D02*
D03*
X449807D02*
D03*
X459807Y97858D02*
D03*
X538547Y122661D02*
D03*
X533547D02*
D03*
X528547D02*
D03*
X538547Y97858D02*
D03*
X617449Y122811D02*
D03*
X612449D02*
D03*
X607449D02*
D03*
X617449Y98008D02*
D03*
D31*
X686028Y97858D02*
D03*
X56106D02*
D03*
X134846D02*
D03*
X213587D02*
D03*
X292327D02*
D03*
X371067D02*
D03*
X449807D02*
D03*
X528547D02*
D03*
X607449Y98008D02*
D03*
D32*
X679480Y79161D02*
D03*
X673575D02*
D03*
X49559D02*
D03*
X43654D02*
D03*
X128299D02*
D03*
X122394D02*
D03*
X207039D02*
D03*
X201134D02*
D03*
X285780D02*
D03*
X279874D02*
D03*
X364520D02*
D03*
X358614D02*
D03*
X443260D02*
D03*
X437354D02*
D03*
X522000D02*
D03*
X516095D02*
D03*
X600902Y79311D02*
D03*
X594996D02*
D03*
D33*
X664528Y114429D02*
D03*
X34606D02*
D03*
X113346D02*
D03*
X192087D02*
D03*
X270827D02*
D03*
X349567D02*
D03*
X428307D02*
D03*
X507047D02*
D03*
X585949Y114579D02*
D03*
D34*
X673543Y89626D02*
D03*
X655512D02*
D03*
X43622D02*
D03*
X25591D02*
D03*
X122362D02*
D03*
X104331D02*
D03*
X201102D02*
D03*
X183071D02*
D03*
X279843D02*
D03*
X261811D02*
D03*
X358583D02*
D03*
X340551D02*
D03*
X437323D02*
D03*
X419291D02*
D03*
X516063D02*
D03*
X498032D02*
D03*
X594965Y89776D02*
D03*
X576933D02*
D03*
D35*
X11626Y37555D02*
D03*
Y30075D02*
D03*
X19500Y33815D02*
D03*
D36*
X53469Y9315D02*
D03*
D37*
Y11815D02*
D03*
Y14315D02*
D03*
Y16815D02*
D03*
Y19315D02*
D03*
Y21815D02*
D03*
Y24315D02*
D03*
Y26815D02*
D03*
Y29315D02*
D03*
Y31815D02*
D03*
Y34315D02*
D03*
Y36815D02*
D03*
X32563Y9315D02*
D03*
Y11815D02*
D03*
Y14315D02*
D03*
Y16815D02*
D03*
Y19315D02*
D03*
Y21815D02*
D03*
Y24315D02*
D03*
Y26815D02*
D03*
Y29315D02*
D03*
Y31815D02*
D03*
Y34315D02*
D03*
Y36815D02*
D03*
D38*
X740158Y0D02*
D03*
Y173228D02*
D03*
X0D02*
D03*
Y0D02*
D03*
D39*
X321772Y32106D02*
D03*
X282402D02*
D03*
X243032D02*
D03*
X674528Y140165D02*
D03*
X44606D02*
D03*
X123346D02*
D03*
X202087D02*
D03*
X280827D02*
D03*
X359567D02*
D03*
X438307D02*
D03*
X517047D02*
D03*
X595949Y140315D02*
D03*
D40*
X331772Y32106D02*
D03*
X292402D02*
D03*
X253032D02*
D03*
X664528Y140165D02*
D03*
X34606D02*
D03*
X113346D02*
D03*
X192087D02*
D03*
X270827D02*
D03*
X349567D02*
D03*
X428307D02*
D03*
X507047D02*
D03*
X585949Y140315D02*
D03*
D41*
X103937Y48446D02*
D03*
X114724D02*
D03*
X125512D02*
D03*
X136299D02*
D03*
X147087D02*
D03*
X157874D02*
D03*
X168661D02*
D03*
X109331Y37265D02*
D03*
X120118D02*
D03*
X130905D02*
D03*
X174055D02*
D03*
X163268D02*
D03*
X141693D02*
D03*
X152480D02*
D03*
D42*
X179449Y48446D02*
D03*
D43*
X76063Y42965D02*
D03*
X207244D02*
D03*
D44*
X669685Y86614D02*
D03*
X590945D02*
D03*
X512205Y86221D02*
D03*
X39764D02*
D03*
X118504Y85433D02*
D03*
X197244Y86614D02*
D03*
X275984Y85827D02*
D03*
X354331Y86221D02*
D03*
X433465Y86614D02*
D03*
X677559Y87008D02*
D03*
X669685Y92520D02*
D03*
X599213Y87008D02*
D03*
X590945Y92520D02*
D03*
X520079Y86614D02*
D03*
X512205Y92126D02*
D03*
X441339Y87008D02*
D03*
X433465Y92520D02*
D03*
X362598Y86614D02*
D03*
X354331Y92126D02*
D03*
X275984D02*
D03*
X283858Y87008D02*
D03*
X205118D02*
D03*
X197244Y92520D02*
D03*
X126378Y86614D02*
D03*
X118504Y91732D02*
D03*
X47244Y87008D02*
D03*
X39764Y92520D02*
D03*
X153937Y73858D02*
D03*
X79771Y76201D02*
D03*
X144882Y122835D02*
D03*
X223622D02*
D03*
X11626Y30075D02*
D03*
X126177Y27191D02*
D03*
X89764Y26772D02*
D03*
X612598Y62205D02*
D03*
X115354Y27323D02*
D03*
X535433Y64213D02*
D03*
X65846Y89323D02*
D03*
X144587D02*
D03*
X223327D02*
D03*
X302067D02*
D03*
X380807D02*
D03*
X695768D02*
D03*
X617189Y89472D02*
D03*
X459547Y89323D02*
D03*
X538287D02*
D03*
X229528Y71693D02*
D03*
X304007Y69921D02*
D03*
X382323Y68150D02*
D03*
X459055Y65984D02*
D03*
X696028Y122661D02*
D03*
X617449Y122811D02*
D03*
X538547Y122661D02*
D03*
X459807D02*
D03*
X381067D02*
D03*
X302327D02*
D03*
X66106D02*
D03*
M02*
