G04*
G04 #@! TF.GenerationSoftware,Altium Limited,Altium Designer,20.0.11 (256)*
G04*
G04 Layer_Color=16711935*
%FSLAX25Y25*%
%MOIN*%
G70*
G01*
G75*
%ADD38C,0.29934*%
%ADD39C,0.06653*%
%ADD40R,0.06653X0.06653*%
%ADD41C,0.06902*%
%ADD42R,0.06902X0.06902*%
%ADD43C,0.14776*%
%ADD44C,0.05721*%
D38*
X740158Y0D02*
D03*
Y173228D02*
D03*
X0D02*
D03*
Y0D02*
D03*
D39*
X321772Y32106D02*
D03*
X282402D02*
D03*
X243032D02*
D03*
X674528Y140165D02*
D03*
X44606D02*
D03*
X123346D02*
D03*
X202087D02*
D03*
X280827D02*
D03*
X359567D02*
D03*
X438307D02*
D03*
X517047D02*
D03*
X595949Y140315D02*
D03*
D40*
X331772Y32106D02*
D03*
X292402D02*
D03*
X253032D02*
D03*
X664528Y140165D02*
D03*
X34606D02*
D03*
X113346D02*
D03*
X192087D02*
D03*
X270827D02*
D03*
X349567D02*
D03*
X428307D02*
D03*
X507047D02*
D03*
X585949Y140315D02*
D03*
D41*
X103937Y48446D02*
D03*
X114724D02*
D03*
X125512D02*
D03*
X136299D02*
D03*
X147087D02*
D03*
X157874D02*
D03*
X168661D02*
D03*
X109331Y37265D02*
D03*
X120118D02*
D03*
X130905D02*
D03*
X174055D02*
D03*
X163268D02*
D03*
X141693D02*
D03*
X152480D02*
D03*
D42*
X179449Y48446D02*
D03*
D43*
X76063Y42965D02*
D03*
X207244D02*
D03*
D44*
X669685Y86614D02*
D03*
X590945D02*
D03*
X512205Y86221D02*
D03*
X39764D02*
D03*
X118504Y85433D02*
D03*
X197244Y86614D02*
D03*
X275984Y85827D02*
D03*
X354331Y86221D02*
D03*
X433465Y86614D02*
D03*
X677559Y87008D02*
D03*
X669685Y92520D02*
D03*
X599213Y87008D02*
D03*
X590945Y92520D02*
D03*
X520079Y86614D02*
D03*
X512205Y92126D02*
D03*
X441339Y87008D02*
D03*
X433465Y92520D02*
D03*
X362598Y86614D02*
D03*
X354331Y92126D02*
D03*
X275984D02*
D03*
X283858Y87008D02*
D03*
X205118D02*
D03*
X197244Y92520D02*
D03*
X126378Y86614D02*
D03*
X118504Y91732D02*
D03*
X47244Y87008D02*
D03*
X39764Y92520D02*
D03*
X153937Y73858D02*
D03*
X79771Y76201D02*
D03*
X144882Y122835D02*
D03*
X223622D02*
D03*
X11626Y30075D02*
D03*
X126177Y27191D02*
D03*
X89764Y26772D02*
D03*
X612598Y62205D02*
D03*
X115354Y27323D02*
D03*
X535433Y64213D02*
D03*
X65846Y89323D02*
D03*
X144587D02*
D03*
X223327D02*
D03*
X302067D02*
D03*
X380807D02*
D03*
X695768D02*
D03*
X617189Y89472D02*
D03*
X459547Y89323D02*
D03*
X538287D02*
D03*
X229528Y71693D02*
D03*
X304007Y69921D02*
D03*
X382323Y68150D02*
D03*
X459055Y65984D02*
D03*
X696028Y122661D02*
D03*
X617449Y122811D02*
D03*
X538547Y122661D02*
D03*
X459807D02*
D03*
X381067D02*
D03*
X302327D02*
D03*
X66106D02*
D03*
M02*
