G04*
G04 #@! TF.GenerationSoftware,Altium Limited,Altium Designer,20.0.11 (256)*
G04*
G04 Layer_Color=255*
%FSLAX25Y25*%
%MOIN*%
G70*
G01*
G75*
%ADD39C,0.06653*%
%ADD40R,0.06653X0.06653*%
%ADD46C,0.29134*%
%ADD47C,0.06102*%
%ADD48R,0.06102X0.06102*%
%ADD49C,0.13976*%
D39*
X321772Y32106D02*
D03*
X282402D02*
D03*
X243032D02*
D03*
X674528Y140165D02*
D03*
X44606D02*
D03*
X123346D02*
D03*
X202087D02*
D03*
X280827D02*
D03*
X359567D02*
D03*
X438307D02*
D03*
X517047D02*
D03*
X595949Y140315D02*
D03*
D40*
X331772Y32106D02*
D03*
X292402D02*
D03*
X253032D02*
D03*
X664528Y140165D02*
D03*
X34606D02*
D03*
X113346D02*
D03*
X192087D02*
D03*
X270827D02*
D03*
X349567D02*
D03*
X428307D02*
D03*
X507047D02*
D03*
X585949Y140315D02*
D03*
D46*
X740158Y0D02*
D03*
Y173228D02*
D03*
X0D02*
D03*
Y0D02*
D03*
D47*
X103937Y48446D02*
D03*
X114724D02*
D03*
X125512D02*
D03*
X136299D02*
D03*
X147087D02*
D03*
X157874D02*
D03*
X168661D02*
D03*
X109331Y37265D02*
D03*
X120118D02*
D03*
X130905D02*
D03*
X174055D02*
D03*
X163268D02*
D03*
X141693D02*
D03*
X152480D02*
D03*
D48*
X179449Y48446D02*
D03*
D49*
X76063Y42965D02*
D03*
X207244D02*
D03*
M02*
