G04*
G04 #@! TF.GenerationSoftware,Altium Limited,Altium Designer,20.0.11 (256)*
G04*
G04 Layer_Color=8388736*
%FSLAX25Y25*%
%MOIN*%
G70*
G01*
G75*
%ADD11C,0.00787*%
D11*
X311102Y-19291D02*
Y35827D01*
Y-19291D02*
X342441D01*
Y35827D01*
X311102D02*
X342441D01*
X271732Y-19291D02*
Y35827D01*
Y-19291D02*
X303071D01*
Y35827D01*
X271732D02*
X303071D01*
X232362Y-19291D02*
Y35827D01*
Y-19291D02*
X263701D01*
Y35827D01*
X232362D02*
X263701D01*
X685197Y136445D02*
Y191563D01*
X653858D02*
X685197D01*
X653858Y136445D02*
Y191563D01*
Y136445D02*
X685197D01*
X55276D02*
Y191563D01*
X23937D02*
X55276D01*
X23937Y136445D02*
Y191563D01*
Y136445D02*
X55276D01*
X134016D02*
Y191563D01*
X102677D02*
X134016D01*
X102677Y136445D02*
Y191563D01*
Y136445D02*
X134016D01*
X212756D02*
Y191563D01*
X181417D02*
X212756D01*
X181417Y136445D02*
Y191563D01*
Y136445D02*
X212756D01*
X291496D02*
Y191563D01*
X260157D02*
X291496D01*
X260157Y136445D02*
Y191563D01*
Y136445D02*
X291496D01*
X370236D02*
Y191563D01*
X338898D02*
X370236D01*
X338898Y136445D02*
Y191563D01*
Y136445D02*
X370236D01*
X448976D02*
Y191563D01*
X417638D02*
X448976D01*
X417638Y136445D02*
Y191563D01*
Y136445D02*
X448976D01*
X527717D02*
Y191563D01*
X496378D02*
X527717D01*
X496378Y136445D02*
Y191563D01*
Y136445D02*
X527717D01*
X606618Y136595D02*
Y191713D01*
X575280D02*
X606618D01*
X575280Y136595D02*
Y191713D01*
Y136595D02*
X606618D01*
M02*
