G04*
G04 #@! TF.GenerationSoftware,Altium Limited,Altium Designer,20.0.11 (256)*
G04*
G04 Layer_Color=32896*
%FSLAX25Y25*%
%MOIN*%
G70*
G01*
G75*
%ADD11C,0.00787*%
D11*
X311496Y-18898D02*
Y35118D01*
Y-18898D02*
X342047D01*
Y35118D01*
X311496D02*
X342047D01*
X272126Y-18898D02*
Y35118D01*
Y-18898D02*
X302677D01*
Y35118D01*
X272126D02*
X302677D01*
X232756Y-18898D02*
Y35118D01*
Y-18898D02*
X263307D01*
Y35118D01*
X232756D02*
X263307D01*
X684803Y137154D02*
Y191169D01*
X654252D02*
X684803D01*
X654252Y137154D02*
Y191169D01*
Y137154D02*
X684803D01*
X54882D02*
Y191169D01*
X24331D02*
X54882D01*
X24331Y137154D02*
Y191169D01*
Y137154D02*
X54882D01*
X133622D02*
Y191169D01*
X103071D02*
X133622D01*
X103071Y137154D02*
Y191169D01*
Y137154D02*
X133622D01*
X212362D02*
Y191169D01*
X181811D02*
X212362D01*
X181811Y137154D02*
Y191169D01*
Y137154D02*
X212362D01*
X291102D02*
Y191169D01*
X260551D02*
X291102D01*
X260551Y137154D02*
Y191169D01*
Y137154D02*
X291102D01*
X369843D02*
Y191169D01*
X339291D02*
X369843D01*
X339291Y137154D02*
Y191169D01*
Y137154D02*
X369843D01*
X448583D02*
Y191169D01*
X418032D02*
X448583D01*
X418032Y137154D02*
Y191169D01*
Y137154D02*
X448583D01*
X527323D02*
Y191169D01*
X496772D02*
X527323D01*
X496772Y137154D02*
Y191169D01*
Y137154D02*
X527323D01*
X606224Y137303D02*
Y191319D01*
X575673D02*
X606224D01*
X575673Y137303D02*
Y191319D01*
Y137303D02*
X606224D01*
M02*
