M48
;Layer_Color=9474304
;FILE_FORMAT=2:5
INCH,LZ
;TYPE=PLATED
T1F00S00C0.02953
T2F00S00C0.04094
T3F00S00C0.04291
T4F00S00C0.12008
T5F00S00C0.12800
%
T01
X0011626Y0030075
X0089764Y0026772
X0115354Y0027323
X0126177Y0027191
X0126378Y0086614
X0118504Y0085433
Y0091732
X0079771Y0076201
X0065846Y0089323
X0047244Y0087008
X0039764Y0086221
Y009252
X0066106Y0122661
X0144882Y0122835
X0144587Y0089323
X0153937Y0073858
X0197244Y0086614
Y009252
X0205118Y0087008
X0223327Y0089323
X0229528Y0071693
X0223622Y0122835
X0275984Y0092126
Y0085827
X0283858Y0087008
X0302067Y0089323
X0304007Y0069921
X0302327Y0122661
X0381067
X0380807Y0089323
X0362598Y0086614
X0354331Y0086221
Y0092126
X0382323Y006815
X0433465Y0086614
Y009252
X0441339Y0087008
X0459547Y0089323
X0459055Y0065984
X0459807Y0122661
X0538547
X0538287Y0089323
X0520079Y0086614
X0512205Y0086221
Y0092126
X0535433Y0064213
X0590945Y0086614
Y009252
X0599213Y0087008
X0617189Y0089472
X0612598Y0062205
X0617449Y0122811
X0696028Y0122661
X0695768Y0089323
X0677559Y0087008
X0669685Y0086614
Y009252
T02
X0109331Y0037265
X0120118
X0130905
X0125512Y0048446
X0114724
X0103937
X0136299
X0147087
X0157874
X0168661
X0179449
X0174055Y0037265
X0163268
X015248
X0141693
T03
X0243032Y0032106
X0253032
X0282402
X0292402
X0321772
X0331772
X0664528Y0140165
X0674528
X0595949Y0140315
X0585949
X0517047Y0140165
X0507047
X0438307
X0428307
X0359567
X0349567
X0280827
X0270827
X0202087
X0192087
X0123346
X0113346
X0044606
X0034606
T04
X0076063Y0042965
X0207244
T05
X0Y0
X0740158
Y0173228
X0
M30
