G04*
G04 #@! TF.GenerationSoftware,Altium Limited,Altium Designer,20.0.11 (256)*
G04*
G04 Layer_Physical_Order=2*
G04 Layer_Color=16711680*
%FSLAX25Y25*%
%MOIN*%
G70*
G01*
G75*
%ADD10C,0.00984*%
%ADD39C,0.06653*%
%ADD40R,0.06653X0.06653*%
%ADD46C,0.29134*%
%ADD47C,0.06102*%
%ADD48R,0.06102X0.06102*%
%ADD49C,0.13976*%
%ADD50C,0.04921*%
G36*
X744776Y191910D02*
X745275Y191910D01*
X745764Y191883D01*
X747399Y191754D01*
X749470Y191257D01*
X751438Y190441D01*
X753255Y189328D01*
X754874Y187945D01*
X756258Y186325D01*
X757371Y184509D01*
X758186Y182541D01*
X758683Y180470D01*
X758812Y178838D01*
X758839Y178346D01*
X758839Y178346D01*
X758839Y177852D01*
X758839Y-4225D01*
X758839Y-4724D01*
X758839Y-4724D01*
X758813Y-5213D01*
X758679Y-6910D01*
X758168Y-9041D01*
X757329Y-11066D01*
X756183Y-12935D01*
X754760Y-14602D01*
X753093Y-16026D01*
X751224Y-17171D01*
X749199Y-18010D01*
X747067Y-18522D01*
X744926Y-18690D01*
X744882Y-18681D01*
X-2362D01*
X-2362Y-18681D01*
Y-18681D01*
X-2851Y-18654D01*
X-4493Y-18546D01*
X-6587Y-18129D01*
X-8609Y-17443D01*
X-10524Y-16499D01*
X-12299Y-15313D01*
X-13905Y-13905D01*
X-15313Y-12299D01*
X-16499Y-10524D01*
X-17443Y-8609D01*
X-18129Y-6587D01*
X-18546Y-4493D01*
X-18654Y-2851D01*
X-18681Y-2362D01*
X-18681D01*
Y177165D01*
X-18692Y177219D01*
X-18515Y179474D01*
X-17974Y181726D01*
X-17088Y183866D01*
X-15878Y185841D01*
X-14373Y187602D01*
X-12612Y189106D01*
X-10638Y190316D01*
X-8498Y191202D01*
X-6246Y191743D01*
X-4427Y191886D01*
X-3937Y191910D01*
Y191910D01*
X-3937Y191910D01*
X744776Y191910D01*
D02*
G37*
%LPC*%
G36*
X590063Y144429D02*
X581835D01*
Y136201D01*
X590063D01*
Y144429D01*
D02*
G37*
G36*
X595949Y144465D02*
X594875Y144323D01*
X593874Y143909D01*
X593014Y143249D01*
X592355Y142390D01*
X591940Y141389D01*
X591799Y140315D01*
X591940Y139241D01*
X592355Y138240D01*
X593014Y137381D01*
X593874Y136721D01*
X594875Y136307D01*
X595949Y136165D01*
X597023Y136307D01*
X598024Y136721D01*
X598883Y137381D01*
X599543Y138240D01*
X599957Y139241D01*
X600099Y140315D01*
X599957Y141389D01*
X599543Y142390D01*
X598883Y143249D01*
X598024Y143909D01*
X597023Y144323D01*
X595949Y144465D01*
D02*
G37*
G36*
X668642Y144280D02*
X660413D01*
Y136051D01*
X668642D01*
Y144280D01*
D02*
G37*
G36*
X511161D02*
X502933D01*
Y136051D01*
X511161D01*
Y144280D01*
D02*
G37*
G36*
X432421D02*
X424193D01*
Y136051D01*
X432421D01*
Y144280D01*
D02*
G37*
G36*
X353681D02*
X345453D01*
Y136051D01*
X353681D01*
Y144280D01*
D02*
G37*
G36*
X274941D02*
X266713D01*
Y136051D01*
X274941D01*
Y144280D01*
D02*
G37*
G36*
X196201D02*
X187972D01*
Y136051D01*
X196201D01*
Y144280D01*
D02*
G37*
G36*
X117461D02*
X109232D01*
Y136051D01*
X117461D01*
Y144280D01*
D02*
G37*
G36*
X38721D02*
X30492D01*
Y136051D01*
X38721D01*
Y144280D01*
D02*
G37*
G36*
X674528Y144315D02*
X673454Y144174D01*
X672453Y143759D01*
X671593Y143100D01*
X670934Y142240D01*
X670519Y141239D01*
X670378Y140165D01*
X670519Y139091D01*
X670934Y138091D01*
X671593Y137231D01*
X672453Y136572D01*
X673454Y136157D01*
X674528Y136016D01*
X675602Y136157D01*
X676602Y136572D01*
X677462Y137231D01*
X678121Y138091D01*
X678536Y139091D01*
X678677Y140165D01*
X678536Y141239D01*
X678121Y142240D01*
X677462Y143100D01*
X676602Y143759D01*
X675602Y144174D01*
X674528Y144315D01*
D02*
G37*
G36*
X517047D02*
X515973Y144174D01*
X514972Y143759D01*
X514113Y143100D01*
X513453Y142240D01*
X513039Y141239D01*
X512897Y140165D01*
X513039Y139091D01*
X513453Y138091D01*
X514113Y137231D01*
X514972Y136572D01*
X515973Y136157D01*
X517047Y136016D01*
X518121Y136157D01*
X519122Y136572D01*
X519981Y137231D01*
X520641Y138091D01*
X521056Y139091D01*
X521197Y140165D01*
X521056Y141239D01*
X520641Y142240D01*
X519981Y143100D01*
X519122Y143759D01*
X518121Y144174D01*
X517047Y144315D01*
D02*
G37*
G36*
X438307D02*
X437233Y144174D01*
X436232Y143759D01*
X435373Y143100D01*
X434714Y142240D01*
X434299Y141239D01*
X434158Y140165D01*
X434299Y139091D01*
X434714Y138091D01*
X435373Y137231D01*
X436232Y136572D01*
X437233Y136157D01*
X438307Y136016D01*
X439381Y136157D01*
X440382Y136572D01*
X441241Y137231D01*
X441901Y138091D01*
X442315Y139091D01*
X442457Y140165D01*
X442315Y141239D01*
X441901Y142240D01*
X441241Y143100D01*
X440382Y143759D01*
X439381Y144174D01*
X438307Y144315D01*
D02*
G37*
G36*
X359567D02*
X358493Y144174D01*
X357492Y143759D01*
X356633Y143100D01*
X355973Y142240D01*
X355559Y141239D01*
X355417Y140165D01*
X355559Y139091D01*
X355973Y138091D01*
X356633Y137231D01*
X357492Y136572D01*
X358493Y136157D01*
X359567Y136016D01*
X360641Y136157D01*
X361642Y136572D01*
X362501Y137231D01*
X363161Y138091D01*
X363575Y139091D01*
X363717Y140165D01*
X363575Y141239D01*
X363161Y142240D01*
X362501Y143100D01*
X361642Y143759D01*
X360641Y144174D01*
X359567Y144315D01*
D02*
G37*
G36*
X280827D02*
X279753Y144174D01*
X278752Y143759D01*
X277892Y143100D01*
X277233Y142240D01*
X276818Y141239D01*
X276677Y140165D01*
X276818Y139091D01*
X277233Y138091D01*
X277892Y137231D01*
X278752Y136572D01*
X279753Y136157D01*
X280827Y136016D01*
X281901Y136157D01*
X282902Y136572D01*
X283761Y137231D01*
X284420Y138091D01*
X284835Y139091D01*
X284977Y140165D01*
X284835Y141239D01*
X284420Y142240D01*
X283761Y143100D01*
X282902Y143759D01*
X281901Y144174D01*
X280827Y144315D01*
D02*
G37*
G36*
X202087D02*
X201013Y144174D01*
X200012Y143759D01*
X199152Y143100D01*
X198493Y142240D01*
X198078Y141239D01*
X197937Y140165D01*
X198078Y139091D01*
X198493Y138091D01*
X199152Y137231D01*
X200012Y136572D01*
X201013Y136157D01*
X202087Y136016D01*
X203161Y136157D01*
X204161Y136572D01*
X205021Y137231D01*
X205680Y138091D01*
X206095Y139091D01*
X206236Y140165D01*
X206095Y141239D01*
X205680Y142240D01*
X205021Y143100D01*
X204161Y143759D01*
X203161Y144174D01*
X202087Y144315D01*
D02*
G37*
G36*
X123346D02*
X122272Y144174D01*
X121272Y143759D01*
X120412Y143100D01*
X119753Y142240D01*
X119338Y141239D01*
X119197Y140165D01*
X119338Y139091D01*
X119753Y138091D01*
X120412Y137231D01*
X121272Y136572D01*
X122272Y136157D01*
X123346Y136016D01*
X124420Y136157D01*
X125421Y136572D01*
X126281Y137231D01*
X126940Y138091D01*
X127355Y139091D01*
X127496Y140165D01*
X127355Y141239D01*
X126940Y142240D01*
X126281Y143100D01*
X125421Y143759D01*
X124420Y144174D01*
X123346Y144315D01*
D02*
G37*
G36*
X44606D02*
X43532Y144174D01*
X42532Y143759D01*
X41672Y143100D01*
X41013Y142240D01*
X40598Y141239D01*
X40457Y140165D01*
X40598Y139091D01*
X41013Y138091D01*
X41672Y137231D01*
X42532Y136572D01*
X43532Y136157D01*
X44606Y136016D01*
X45680Y136157D01*
X46681Y136572D01*
X47541Y137231D01*
X48200Y138091D01*
X48615Y139091D01*
X48756Y140165D01*
X48615Y141239D01*
X48200Y142240D01*
X47541Y143100D01*
X46681Y143759D01*
X45680Y144174D01*
X44606Y144315D01*
D02*
G37*
G36*
X153937Y77134D02*
X153089Y77023D01*
X152299Y76696D01*
X151620Y76175D01*
X151100Y75496D01*
X150773Y74706D01*
X150661Y73858D01*
X150773Y73010D01*
X151100Y72220D01*
X151620Y71542D01*
X152239Y71067D01*
Y61119D01*
X150495Y59375D01*
X150495Y59375D01*
X150212Y58952D01*
Y58952D01*
X150212Y58952D01*
X150113Y58452D01*
Y51593D01*
X149613Y51346D01*
X149022Y51799D01*
X148089Y52186D01*
X147087Y52318D01*
X146084Y52186D01*
X145151Y51799D01*
X144349Y51184D01*
X143734Y50382D01*
X143347Y49448D01*
X143215Y48446D01*
X143347Y47444D01*
X143734Y46510D01*
X144349Y45709D01*
X145151Y45093D01*
X146084Y44707D01*
X146375Y44668D01*
X146750Y44115D01*
X146723Y44000D01*
X146300Y43718D01*
X143326Y40744D01*
X142695Y41005D01*
X141693Y41137D01*
X140691Y41005D01*
X139757Y40618D01*
X138955Y40003D01*
X138340Y39201D01*
X137953Y38267D01*
X137821Y37265D01*
X137953Y36263D01*
X138340Y35329D01*
X138793Y34739D01*
X138546Y34239D01*
X134052D01*
X133806Y34739D01*
X134258Y35329D01*
X134645Y36263D01*
X134777Y37265D01*
X134645Y38267D01*
X134258Y39201D01*
X133643Y40003D01*
X132841Y40618D01*
X131908Y41005D01*
X130905Y41137D01*
X129903Y41005D01*
X128970Y40618D01*
X128168Y40003D01*
X127552Y39201D01*
X127166Y38267D01*
X127034Y37265D01*
X127166Y36263D01*
X127552Y35329D01*
X128005Y34739D01*
X127759Y34239D01*
X123265D01*
X123018Y34739D01*
X123471Y35329D01*
X123858Y36263D01*
X123990Y37265D01*
X123858Y38267D01*
X123471Y39201D01*
X122856Y40003D01*
X122054Y40618D01*
X121120Y41005D01*
X120118Y41137D01*
X119116Y41005D01*
X118182Y40618D01*
X117380Y40003D01*
X116765Y39201D01*
X116378Y38267D01*
X116246Y37265D01*
X116378Y36263D01*
X116765Y35329D01*
X117218Y34739D01*
X116972Y34239D01*
X112477D01*
X112231Y34739D01*
X112684Y35329D01*
X113070Y36263D01*
X113202Y37265D01*
X113070Y38267D01*
X112684Y39201D01*
X112068Y40003D01*
X111267Y40618D01*
X110333Y41005D01*
X109331Y41137D01*
X108329Y41005D01*
X107395Y40618D01*
X106593Y40003D01*
X105978Y39201D01*
X105591Y38267D01*
X105494Y37530D01*
X104966Y37351D01*
X102879Y39437D01*
Y44210D01*
X103379Y44648D01*
X103937Y44575D01*
X104939Y44707D01*
X105873Y45093D01*
X106675Y45709D01*
X107290Y46510D01*
X107677Y47444D01*
X107809Y48446D01*
X107677Y49448D01*
X107290Y50382D01*
X106675Y51184D01*
X105873Y51799D01*
X104939Y52186D01*
X103937Y52318D01*
X102935Y52186D01*
X102001Y51799D01*
X101199Y51184D01*
X100584Y50382D01*
X100197Y49448D01*
X100065Y48446D01*
X100197Y47444D01*
X100584Y46510D01*
X100734Y46315D01*
X100652Y46233D01*
X100370Y45810D01*
X100270Y45311D01*
Y38897D01*
X100370Y38397D01*
X100652Y37974D01*
X106614Y32012D01*
X107038Y31729D01*
X107537Y31630D01*
X117163D01*
X117355Y31168D01*
X116536Y30349D01*
X116202Y30487D01*
X115354Y30599D01*
X114506Y30487D01*
X113716Y30160D01*
X113038Y29639D01*
X112517Y28961D01*
X112190Y28171D01*
X112078Y27323D01*
X112190Y26475D01*
X112517Y25685D01*
X113038Y25006D01*
X113716Y24486D01*
X114506Y24158D01*
X115354Y24047D01*
X116202Y24158D01*
X116992Y24486D01*
X117671Y25006D01*
X118192Y25685D01*
X118519Y26475D01*
X118630Y27323D01*
X118519Y28171D01*
X118381Y28504D01*
X119735Y29858D01*
X123543D01*
X123745Y29358D01*
X123339Y28829D01*
X123012Y28039D01*
X122900Y27191D01*
X123012Y26343D01*
X123339Y25553D01*
X123860Y24875D01*
X124538Y24354D01*
X125329Y24027D01*
X126177Y23915D01*
X127024Y24027D01*
X127814Y24354D01*
X128493Y24875D01*
X129014Y25553D01*
X129341Y26343D01*
X129453Y27191D01*
X129401Y27587D01*
X129839Y28087D01*
X177317D01*
X177816Y28186D01*
X178239Y28469D01*
X182852Y33081D01*
X183134Y33505D01*
X183234Y34004D01*
Y37464D01*
X188245Y42475D01*
X188528Y42898D01*
X188628Y43398D01*
Y43475D01*
X188729Y43577D01*
X188976D01*
X189476Y43677D01*
X189899Y43959D01*
X197391Y51451D01*
X524803D01*
X525302Y51551D01*
X525448Y51648D01*
X529518D01*
X530018Y51748D01*
X530441Y52030D01*
X539311Y60900D01*
X609623D01*
X609761Y60567D01*
X610282Y59888D01*
X610960Y59368D01*
X611751Y59040D01*
X612598Y58929D01*
X613446Y59040D01*
X614236Y59368D01*
X614915Y59888D01*
X615436Y60567D01*
X615763Y61357D01*
X615874Y62205D01*
X615763Y63053D01*
X615436Y63843D01*
X614915Y64521D01*
X614236Y65042D01*
X613446Y65369D01*
X612598Y65481D01*
X611751Y65369D01*
X610960Y65042D01*
X610282Y64521D01*
X609761Y63843D01*
X609623Y63509D01*
X539121D01*
X538677Y63971D01*
X538709Y64213D01*
X538597Y65061D01*
X538270Y65851D01*
X537750Y66529D01*
X537071Y67050D01*
X536281Y67377D01*
X535433Y67489D01*
X534585Y67377D01*
X533795Y67050D01*
X533117Y66529D01*
X532596Y65851D01*
X532269Y65061D01*
X532157Y64213D01*
X532269Y63365D01*
X532407Y63031D01*
X525404Y56029D01*
X451598D01*
X451407Y56491D01*
X457874Y62958D01*
X458207Y62820D01*
X459055Y62708D01*
X459903Y62820D01*
X460693Y63147D01*
X461372Y63668D01*
X461892Y64346D01*
X462220Y65136D01*
X462331Y65984D01*
X462220Y66832D01*
X461892Y67622D01*
X461372Y68301D01*
X460693Y68821D01*
X459903Y69149D01*
X459055Y69260D01*
X458207Y69149D01*
X457417Y68821D01*
X456739Y68301D01*
X456218Y67622D01*
X455891Y66832D01*
X455779Y65984D01*
X455891Y65136D01*
X456029Y64803D01*
X449223Y57998D01*
X194739D01*
X194239Y57898D01*
X193816Y57616D01*
X183749Y47549D01*
X183287Y47740D01*
Y51473D01*
X183486D01*
X183985Y51572D01*
X184408Y51855D01*
X193778Y61225D01*
X376702D01*
X377202Y61324D01*
X377625Y61607D01*
X381141Y65123D01*
X381475Y64985D01*
X382323Y64873D01*
X383171Y64985D01*
X383961Y65312D01*
X384639Y65833D01*
X385160Y66511D01*
X385487Y67302D01*
X385599Y68150D01*
X385487Y68998D01*
X385160Y69788D01*
X384639Y70466D01*
X383961Y70987D01*
X383171Y71314D01*
X382323Y71426D01*
X381475Y71314D01*
X380685Y70987D01*
X380006Y70466D01*
X379486Y69788D01*
X379158Y68998D01*
X379047Y68150D01*
X379158Y67302D01*
X379296Y66968D01*
X376162Y63834D01*
X300417D01*
X300226Y64296D01*
X302825Y66895D01*
X303159Y66757D01*
X304007Y66645D01*
X304854Y66757D01*
X305645Y67084D01*
X306323Y67605D01*
X306844Y68283D01*
X307171Y69073D01*
X307283Y69921D01*
X307171Y70769D01*
X306844Y71559D01*
X306323Y72238D01*
X305645Y72759D01*
X304854Y73086D01*
X304007Y73197D01*
X303159Y73086D01*
X302369Y72759D01*
X301690Y72238D01*
X301169Y71559D01*
X300842Y70769D01*
X300730Y69921D01*
X300842Y69073D01*
X300980Y68740D01*
X297846Y65606D01*
X178868D01*
X178369Y65506D01*
X177945Y65223D01*
X166788Y54066D01*
X166368Y53983D01*
X165945Y53700D01*
X162345Y50100D01*
X162063Y49677D01*
X162062Y49673D01*
X161879Y49603D01*
X161542Y49622D01*
X161227Y50382D01*
X160612Y51184D01*
X159810Y51799D01*
X159012Y52130D01*
X158824Y52648D01*
X176564Y70388D01*
X226552D01*
X226690Y70055D01*
X227211Y69376D01*
X227890Y68856D01*
X228680Y68528D01*
X229528Y68417D01*
X230376Y68528D01*
X231166Y68856D01*
X231844Y69376D01*
X232365Y70055D01*
X232692Y70845D01*
X232804Y71693D01*
X232692Y72541D01*
X232365Y73331D01*
X231844Y74010D01*
X231166Y74530D01*
X230376Y74857D01*
X229528Y74969D01*
X228680Y74857D01*
X227890Y74530D01*
X227211Y74010D01*
X226690Y73331D01*
X226552Y72998D01*
X176024D01*
X175524Y72898D01*
X175101Y72615D01*
X156567Y54082D01*
X156080D01*
X155581Y53983D01*
X155158Y53700D01*
X153184Y51726D01*
X152722Y51917D01*
Y57912D01*
X154466Y59656D01*
X154466Y59656D01*
X154749Y60079D01*
X154749Y60079D01*
X154749Y60079D01*
X154848Y60578D01*
X154848Y60578D01*
X154848Y60578D01*
Y70720D01*
X155575Y71021D01*
X156254Y71542D01*
X156774Y72220D01*
X157101Y73010D01*
X157213Y73858D01*
X157101Y74706D01*
X156774Y75496D01*
X156254Y76175D01*
X155575Y76696D01*
X154785Y77023D01*
X153937Y77134D01*
D02*
G37*
G36*
X136299Y52318D02*
X135297Y52186D01*
X134363Y51799D01*
X133562Y51184D01*
X132946Y50382D01*
X132559Y49448D01*
X132428Y48446D01*
X132559Y47444D01*
X132946Y46510D01*
X133562Y45709D01*
X134363Y45093D01*
X135297Y44707D01*
X136299Y44575D01*
X137301Y44707D01*
X138235Y45093D01*
X139037Y45709D01*
X139652Y46510D01*
X140039Y47444D01*
X140171Y48446D01*
X140039Y49448D01*
X139652Y50382D01*
X139037Y51184D01*
X138235Y51799D01*
X137301Y52186D01*
X136299Y52318D01*
D02*
G37*
G36*
X125512D02*
X124510Y52186D01*
X123576Y51799D01*
X122774Y51184D01*
X122159Y50382D01*
X121772Y49448D01*
X121640Y48446D01*
X121772Y47444D01*
X122159Y46510D01*
X122774Y45709D01*
X123576Y45093D01*
X124510Y44707D01*
X125512Y44575D01*
X126514Y44707D01*
X127448Y45093D01*
X128250Y45709D01*
X128865Y46510D01*
X129252Y47444D01*
X129384Y48446D01*
X129252Y49448D01*
X128865Y50382D01*
X128250Y51184D01*
X127448Y51799D01*
X126514Y52186D01*
X125512Y52318D01*
D02*
G37*
G36*
X114724D02*
X113722Y52186D01*
X112789Y51799D01*
X111987Y51184D01*
X111371Y50382D01*
X110985Y49448D01*
X110853Y48446D01*
X110985Y47444D01*
X111371Y46510D01*
X111987Y45709D01*
X112789Y45093D01*
X113722Y44707D01*
X114724Y44575D01*
X115726Y44707D01*
X116660Y45093D01*
X117462Y45709D01*
X118077Y46510D01*
X118464Y47444D01*
X118596Y48446D01*
X118464Y49448D01*
X118077Y50382D01*
X117462Y51184D01*
X116660Y51799D01*
X115726Y52186D01*
X114724Y52318D01*
D02*
G37*
G36*
X207244Y50779D02*
X205720Y50629D01*
X204254Y50184D01*
X202903Y49462D01*
X201719Y48490D01*
X200748Y47306D01*
X200026Y45955D01*
X199581Y44490D01*
X199431Y42965D01*
X199581Y41441D01*
X200026Y39975D01*
X200748Y38625D01*
X201719Y37441D01*
X202903Y36469D01*
X204254Y35747D01*
X205720Y35302D01*
X207244Y35152D01*
X208768Y35302D01*
X210234Y35747D01*
X211585Y36469D01*
X212769Y37441D01*
X213740Y38625D01*
X214463Y39975D01*
X214907Y41441D01*
X215057Y42965D01*
X214907Y44490D01*
X214463Y45955D01*
X213740Y47306D01*
X212769Y48490D01*
X211585Y49462D01*
X210234Y50184D01*
X208768Y50629D01*
X207244Y50779D01*
D02*
G37*
G36*
X76063D02*
X74539Y50629D01*
X73073Y50184D01*
X71722Y49462D01*
X70538Y48490D01*
X69567Y47306D01*
X68844Y45955D01*
X68400Y44490D01*
X68250Y42965D01*
X68400Y41441D01*
X68844Y39975D01*
X69567Y38625D01*
X70538Y37441D01*
X71722Y36469D01*
X73073Y35747D01*
X74539Y35302D01*
X76063Y35152D01*
X77587Y35302D01*
X79053Y35747D01*
X80404Y36469D01*
X81588Y37441D01*
X82559Y38625D01*
X83281Y39975D01*
X83726Y41441D01*
X83876Y42965D01*
X83726Y44490D01*
X83281Y45955D01*
X82559Y47306D01*
X81588Y48490D01*
X80404Y49462D01*
X79053Y50184D01*
X77587Y50629D01*
X76063Y50779D01*
D02*
G37*
G36*
X321772Y36256D02*
X320698Y36115D01*
X319697Y35700D01*
X318837Y35041D01*
X318178Y34181D01*
X317763Y33180D01*
X317622Y32106D01*
X317763Y31032D01*
X318178Y30031D01*
X318837Y29172D01*
X319697Y28513D01*
X320698Y28098D01*
X321772Y27957D01*
X322846Y28098D01*
X323846Y28513D01*
X324706Y29172D01*
X325365Y30031D01*
X325780Y31032D01*
X325921Y32106D01*
X325780Y33180D01*
X325365Y34181D01*
X324706Y35041D01*
X323846Y35700D01*
X322846Y36115D01*
X321772Y36256D01*
D02*
G37*
G36*
X282402D02*
X281328Y36115D01*
X280327Y35700D01*
X279467Y35041D01*
X278808Y34181D01*
X278393Y33180D01*
X278252Y32106D01*
X278393Y31032D01*
X278808Y30031D01*
X279467Y29172D01*
X280327Y28513D01*
X281328Y28098D01*
X282402Y27957D01*
X283476Y28098D01*
X284476Y28513D01*
X285336Y29172D01*
X285995Y30031D01*
X286410Y31032D01*
X286551Y32106D01*
X286410Y33180D01*
X285995Y34181D01*
X285336Y35041D01*
X284476Y35700D01*
X283476Y36115D01*
X282402Y36256D01*
D02*
G37*
G36*
X243032D02*
X241958Y36115D01*
X240957Y35700D01*
X240097Y35041D01*
X239438Y34181D01*
X239023Y33180D01*
X238882Y32106D01*
X239023Y31032D01*
X239438Y30031D01*
X240097Y29172D01*
X240957Y28513D01*
X241958Y28098D01*
X243032Y27957D01*
X244106Y28098D01*
X245106Y28513D01*
X245966Y29172D01*
X246625Y30031D01*
X247040Y31032D01*
X247181Y32106D01*
X247040Y33180D01*
X246625Y34181D01*
X245966Y35041D01*
X245106Y35700D01*
X244106Y36115D01*
X243032Y36256D01*
D02*
G37*
G36*
X79771Y79477D02*
X78923Y79366D01*
X78133Y79039D01*
X77455Y78518D01*
X76934Y77839D01*
X76607Y77049D01*
X76495Y76201D01*
X76607Y75353D01*
X76934Y74563D01*
X77455Y73885D01*
X78133Y73364D01*
X78923Y73037D01*
X79771Y72925D01*
X80619Y73037D01*
X80952Y73175D01*
X84916Y69212D01*
Y30315D01*
X85015Y29816D01*
X85298Y29392D01*
X86738Y27953D01*
X86599Y27619D01*
X86488Y26772D01*
X86599Y25924D01*
X86927Y25133D01*
X87447Y24455D01*
X88126Y23934D01*
X88916Y23607D01*
X89764Y23495D01*
X90612Y23607D01*
X91402Y23934D01*
X92080Y24455D01*
X92601Y25133D01*
X92928Y25924D01*
X93040Y26772D01*
X92928Y27619D01*
X92601Y28410D01*
X92080Y29088D01*
X91402Y29609D01*
X90612Y29936D01*
X89764Y30048D01*
X88916Y29936D01*
X88582Y29798D01*
X87525Y30855D01*
Y69752D01*
X87426Y70251D01*
X87143Y70675D01*
X82797Y75020D01*
X82935Y75353D01*
X83047Y76201D01*
X82935Y77049D01*
X82608Y77839D01*
X82087Y78518D01*
X81409Y79039D01*
X80619Y79366D01*
X79771Y79477D01*
D02*
G37*
G36*
X0Y15402D02*
X-2409Y15212D01*
X-4759Y14648D01*
X-6992Y13723D01*
X-9053Y12460D01*
X-10891Y10891D01*
X-12460Y9053D01*
X-13723Y6992D01*
X-14648Y4759D01*
X-15212Y2409D01*
X-15402Y0D01*
X-15212Y-2409D01*
X-14648Y-4759D01*
X-13723Y-6992D01*
X-12460Y-9053D01*
X-10891Y-10891D01*
X-9053Y-12460D01*
X-6992Y-13723D01*
X-4759Y-14648D01*
X-2409Y-15212D01*
X0Y-15402D01*
X2409Y-15212D01*
X4759Y-14648D01*
X6992Y-13723D01*
X9053Y-12460D01*
X10891Y-10891D01*
X12460Y-9053D01*
X13723Y-6992D01*
X14648Y-4759D01*
X15212Y-2409D01*
X15402Y0D01*
X15212Y2409D01*
X14648Y4759D01*
X13723Y6992D01*
X12460Y9053D01*
X10891Y10891D01*
X9053Y12460D01*
X6992Y13723D01*
X4759Y14648D01*
X2409Y15212D01*
X0Y15402D01*
D02*
G37*
%LPD*%
D10*
X125984Y27384D02*
X126177Y27191D01*
X125984Y27384D02*
Y28210D01*
X127165Y29391D01*
X101575Y38897D02*
X107537Y32935D01*
X176583Y31163D02*
X180157Y34738D01*
X175849Y32935D02*
X178386Y35472D01*
X115354Y27323D02*
X119194Y31163D01*
X107537Y32935D02*
X175849D01*
X119194Y31163D02*
X176583D01*
X127165Y29391D02*
X177317D01*
X187323Y44016D02*
X188189Y44882D01*
X187323Y43398D02*
Y44016D01*
X181929Y38004D02*
X187323Y43398D01*
X181929Y34004D02*
Y38004D01*
X177317Y29391D02*
X181929Y34004D01*
X188189Y44882D02*
X188976D01*
X196850Y52756D01*
X524803D01*
X185551Y45000D02*
X195276Y54724D01*
X525945D01*
X449764Y56693D02*
X459055Y65984D01*
X525945Y54724D02*
X535433Y64213D01*
X194739Y56693D02*
X449764D01*
X183780Y45734D02*
X194739Y56693D01*
X538770Y62205D02*
X612598D01*
X529518Y52953D02*
X538770Y62205D01*
X525000Y52953D02*
X529518D01*
X524803Y52756D02*
X525000Y52953D01*
X376702Y62529D02*
X382323Y68150D01*
X193238Y62529D02*
X376702D01*
X174055Y50965D02*
X175868Y52777D01*
X183486D01*
X183780Y44865D02*
Y45734D01*
X178386Y39472D02*
X183780Y44865D01*
X180157Y34738D02*
Y38738D01*
X178386Y35472D02*
Y39472D01*
X101575Y38897D02*
Y45311D01*
X180157Y38738D02*
X185551Y44131D01*
Y45000D01*
X103937Y47673D02*
Y48446D01*
X101575Y45311D02*
X103937Y47673D01*
X175868Y52777D02*
X183486D01*
X193238Y62529D01*
X174055Y50965D02*
X175868Y52777D01*
X178868Y64301D02*
X298386D01*
X304007Y69921D01*
X298386Y64301D02*
X304007Y69921D01*
X163268Y37265D02*
Y49177D01*
X166868Y52777D01*
X178868Y64301D02*
X298386D01*
X80539Y75433D02*
X86220Y69752D01*
Y30315D02*
Y69752D01*
X147222Y42795D02*
X147560D01*
X141693Y37265D02*
X147222Y42795D01*
X153543Y46273D02*
Y50240D01*
X152480Y45210D02*
X153543Y46273D01*
X150709Y45944D02*
X151417Y46653D01*
X147560Y42795D02*
X150709Y45944D01*
X156080Y52777D02*
X157108D01*
X153543Y50240D02*
X156080Y52777D01*
X79771Y76201D02*
X80539Y75433D01*
X86220Y30315D02*
X89764Y26772D01*
X153543Y73465D02*
X153937Y73858D01*
X153543Y60578D02*
Y73465D01*
X151417Y58452D02*
X153543Y60578D01*
X151417Y46653D02*
Y58452D01*
X176024Y71693D02*
X229528D01*
X157108Y52777D02*
X176024Y71693D01*
X152480Y37265D02*
Y45210D01*
X174055Y37265D02*
Y50965D01*
X167344Y52777D02*
X178868Y64301D01*
X166868Y52777D02*
X167344D01*
X163268Y49177D02*
X166868Y52777D01*
X163268Y37265D02*
Y49177D01*
X157108Y52777D02*
X176024Y71693D01*
X229528D01*
D39*
X321772Y32106D02*
D03*
X282402D02*
D03*
X243032D02*
D03*
X674528Y140165D02*
D03*
X44606D02*
D03*
X123346D02*
D03*
X202087D02*
D03*
X280827D02*
D03*
X359567D02*
D03*
X438307D02*
D03*
X517047D02*
D03*
X595949Y140315D02*
D03*
D40*
X331772Y32106D02*
D03*
X292402D02*
D03*
X253032D02*
D03*
X664528Y140165D02*
D03*
X34606D02*
D03*
X113346D02*
D03*
X192087D02*
D03*
X270827D02*
D03*
X349567D02*
D03*
X428307D02*
D03*
X507047D02*
D03*
X585949Y140315D02*
D03*
D46*
X740158Y0D02*
D03*
Y173228D02*
D03*
X0D02*
D03*
Y0D02*
D03*
D47*
X103937Y48446D02*
D03*
X114724D02*
D03*
X125512D02*
D03*
X136299D02*
D03*
X147087D02*
D03*
X157874D02*
D03*
X168661D02*
D03*
X109331Y37265D02*
D03*
X120118D02*
D03*
X130905D02*
D03*
X174055D02*
D03*
X163268D02*
D03*
X141693D02*
D03*
X152480D02*
D03*
D48*
X179449Y48446D02*
D03*
D49*
X76063Y42965D02*
D03*
X207244D02*
D03*
D50*
X669685Y86614D02*
D03*
X590945D02*
D03*
X512205Y86221D02*
D03*
X39764D02*
D03*
X118504Y85433D02*
D03*
X197244Y86614D02*
D03*
X275984Y85827D02*
D03*
X354331Y86221D02*
D03*
X433465Y86614D02*
D03*
X677559Y87008D02*
D03*
X669685Y92520D02*
D03*
X599213Y87008D02*
D03*
X590945Y92520D02*
D03*
X520079Y86614D02*
D03*
X512205Y92126D02*
D03*
X441339Y87008D02*
D03*
X433465Y92520D02*
D03*
X362598Y86614D02*
D03*
X354331Y92126D02*
D03*
X275984D02*
D03*
X283858Y87008D02*
D03*
X205118D02*
D03*
X197244Y92520D02*
D03*
X126378Y86614D02*
D03*
X118504Y91732D02*
D03*
X47244Y87008D02*
D03*
X39764Y92520D02*
D03*
X153937Y73858D02*
D03*
X79771Y76201D02*
D03*
X144882Y122835D02*
D03*
X223622D02*
D03*
X11626Y30075D02*
D03*
X126177Y27191D02*
D03*
X89764Y26772D02*
D03*
X612598Y62205D02*
D03*
X115354Y27323D02*
D03*
X535433Y64213D02*
D03*
X65846Y89323D02*
D03*
X144587D02*
D03*
X223327D02*
D03*
X302067D02*
D03*
X380807D02*
D03*
X695768D02*
D03*
X617189Y89472D02*
D03*
X459547Y89323D02*
D03*
X538287D02*
D03*
X229528Y71693D02*
D03*
X304007Y69921D02*
D03*
X382323Y68150D02*
D03*
X459055Y65984D02*
D03*
X696028Y122661D02*
D03*
X617449Y122811D02*
D03*
X538547Y122661D02*
D03*
X459807D02*
D03*
X381067D02*
D03*
X302327D02*
D03*
X66106D02*
D03*
M02*
